<?xml version="1.0" standalone="no"?>
<!DOCTYPE svg PUBLIC "-//W3C//DTD SVG 20010904//EN"
 "http://www.w3.org/TR/2001/REC-SVG-20010904/DTD/svg10.dtd">
<svg version="1.0" xmlns="http://www.w3.org/2000/svg"
 width="854.000000pt" height="854.000000pt" viewBox="0 0 854.000000 854.000000"
 preserveAspectRatio="xMidYMid meet">
<metadata>
Created by potrace 1.14, written by Peter Selinger 2001-2017
</metadata>
<g transform="translate(0.000000,854.000000) scale(0.100000,-0.100000)"
fill="#000000" stroke="none">
<path d="M4028 8535 c-1 -2 -41 -6 -87 -9 -47 -4 -98 -9 -115 -11 -17 -2 -51
-7 -76 -10 -25 -3 -55 -7 -66 -9 -12 -2 -37 -7 -55 -10 -19 -3 -45 -8 -59 -11
-14 -3 -41 -8 -60 -11 -19 -3 -60 -12 -91 -20 -30 -7 -66 -16 -80 -18 -13 -2
-24 -5 -24 -6 0 -1 -7 -3 -15 -5 -8 -1 -42 -11 -75 -20 -33 -10 -61 -18 -62
-17 -9 3 -268 -90 -281 -100 -8 -7 -16 -11 -16 -9 -1 2 -12 1 -26 -3 -26 -8
-46 -16 -143 -60 -32 -14 -60 -26 -62 -26 -7 0 -279 -135 -330 -164 -91 -50
-135 -76 -235 -136 -58 -35 -107 -66 -110 -69 -3 -3 -39 -28 -80 -55 -41 -27
-76 -53 -78 -58 -2 -4 -8 -8 -14 -8 -6 0 -23 -10 -38 -22 -15 -13 -40 -32 -56
-43 -182 -129 -460 -380 -624 -564 -30 -34 -66 -74 -80 -89 -59 -63 -250 -316
-250 -331 0 -5 -3 -11 -7 -13 -12 -5 -53 -66 -53 -78 0 -5 -4 -10 -10 -10 -5
0 -10 -5 -10 -11 0 -6 -13 -29 -28 -52 -16 -23 -43 -69 -62 -102 -18 -33 -41
-75 -52 -93 -24 -43 -82 -156 -83 -162 0 -3 -11 -27 -24 -55 -66 -143 -202
-514 -217 -590 -1 -5 -11 -46 -23 -90 -32 -123 -57 -238 -67 -310 -1 -11 -3
-20 -4 -20 -2 0 -8 -31 -15 -80 -3 -22 -7 -51 -9 -65 -2 -14 -7 -45 -10 -70
-3 -25 -8 -67 -12 -93 -3 -27 -7 -70 -9 -95 -2 -26 -4 -47 -5 -47 -5 0 -10
-129 -15 -387 l-6 -287 332 2 333 2 1 28 c1 15 -1 27 -4 27 -7 0 -5 96 3 116
3 7 2 15 -2 18 -9 6 -8 79 2 94 3 6 2 13 -2 16 -5 3 -8 18 -6 33 2 16 6 71 9
123 8 164 17 254 40 410 10 71 15 102 26 150 6 25 12 56 14 70 2 14 13 63 25
110 12 47 23 90 24 95 14 61 72 242 86 267 6 10 10 23 10 29 0 6 6 25 14 42 7
18 33 77 56 132 40 95 125 262 169 336 12 19 24 41 28 49 8 17 135 212 143
220 3 3 21 28 40 55 34 48 62 84 88 111 6 7 12 15 12 18 0 3 11 18 24 33 87
99 136 152 169 187 20 22 37 44 37 48 0 4 4 8 8 8 4 0 46 37 93 83 47 45 109
102 138 127 29 25 65 55 79 68 38 32 41 34 144 112 51 38 98 73 103 78 120 90
521 317 551 312 4 -1 10 2 13 7 7 10 116 56 127 53 4 -1 10 2 13 7 3 5 44 22
91 37 47 16 91 33 98 39 6 5 12 7 12 4 0 -4 19 1 43 9 56 20 312 85 357 90 19
3 42 7 50 9 21 6 66 13 125 20 28 3 64 8 80 10 191 26 634 26 840 0 17 -2 53
-6 80 -10 44 -5 77 -10 190 -30 70 -12 92 -17 130 -27 22 -5 49 -12 60 -14 11
-1 27 -5 35 -7 8 -2 29 -7 45 -11 17 -4 51 -14 76 -22 25 -8 54 -16 65 -19 24
-5 131 -40 164 -53 14 -6 79 -32 145 -58 208 -82 407 -188 608 -323 55 -36
106 -70 115 -76 10 -5 19 -12 22 -15 3 -3 34 -28 70 -55 193 -148 428 -379
591 -582 112 -140 276 -373 262 -373 -4 0 -3 -4 3 -8 12 -7 22 -24 100 -164
134 -239 265 -569 323 -813 7 -27 16 -66 21 -85 11 -42 30 -139 36 -183 2 -18
6 -48 9 -67 6 -45 17 -174 19 -214 l1 -30 -276 -1 c-151 -1 -289 3 -305 7 -41
11 -59 49 -84 183 -19 107 -25 136 -34 173 -67 265 -163 506 -295 747 -39 70
-207 324 -248 374 -109 134 -160 190 -266 294 -183 181 -373 326 -589 450
-136 79 -326 169 -428 204 -25 8 -56 20 -70 26 -14 5 -30 11 -37 13 -7 1 -34
9 -60 17 -95 29 -159 47 -228 62 -107 23 -125 26 -230 40 -22 3 -51 7 -64 10
-39 7 -385 21 -411 16 -3 -1 -48 -4 -100 -7 -148 -8 -215 -15 -320 -35 -30 -6
-64 -12 -75 -13 -11 -2 -81 -18 -155 -37 -74 -18 -138 -32 -142 -31 -5 1 -8
-3 -8 -8 0 -6 -8 -10 -17 -10 -20 0 -221 -75 -305 -113 -132 -61 -153 -72
-160 -81 -4 -6 -8 -8 -8 -4 0 4 -23 -6 -50 -22 -28 -17 -55 -30 -60 -30 -6 0
-10 -4 -10 -8 0 -5 -12 -14 -26 -20 -77 -36 -321 -215 -459 -337 -68 -61 -178
-171 -233 -235 -17 -19 -43 -48 -57 -65 -67 -77 -180 -238 -282 -400 -64 -103
-183 -359 -228 -490 -14 -44 -31 -89 -35 -100 -10 -21 -58 -194 -66 -235 -3
-14 -14 -68 -24 -120 -21 -105 -26 -145 -45 -360 -5 -56 -6 -407 -1 -470 l3
-35 976 -3 977 -2 0 47 c0 317 14 456 56 583 17 51 50 128 64 150 6 8 16 26
22 40 26 54 95 139 176 218 46 45 88 82 93 82 6 0 19 8 30 19 38 35 226 120
304 137 15 3 86 15 115 20 34 5 209 6 240 0 14 -2 43 -7 65 -11 79 -13 216
-63 275 -100 22 -14 43 -25 48 -25 4 0 23 -13 42 -30 19 -16 38 -29 42 -30 16
0 147 -137 192 -199 77 -106 152 -277 171 -391 4 -19 9 -48 12 -65 3 -16 6
-118 8 -225 2 -107 4 -199 4 -205 1 -6 115 -10 323 -10 l322 0 6 30 c14 77 0
480 -21 585 -20 102 -60 243 -85 297 -7 17 -14 34 -14 37 0 8 -62 132 -95 190
-118 209 -322 420 -540 561 -70 45 -217 121 -282 146 -13 5 -33 13 -45 18 -43
18 -105 36 -153 46 -16 3 -38 8 -47 11 -66 20 -220 37 -333 37 -82 0 -234 -11
-245 -18 -3 -2 -26 -6 -50 -10 -25 -3 -63 -11 -85 -17 -22 -7 -43 -12 -47 -14
-5 -1 -11 -3 -15 -4 -5 -1 -11 -2 -15 -1 -4 0 -37 -10 -73 -24 -36 -13 -65
-22 -65 -20 0 3 -15 -4 -32 -14 -18 -10 -50 -23 -71 -30 -38 -13 -211 -104
-227 -121 -3 -3 -25 -19 -50 -35 -25 -17 -58 -41 -75 -55 -45 -38 -215 -207
-215 -215 0 -3 -9 -16 -21 -28 -30 -32 -121 -171 -163 -250 -32 -60 -113 -243
-120 -272 -23 -89 -64 -168 -91 -171 -19 -3 -403 -6 -542 -5 l-62 1 4 28 c3
15 7 43 9 62 7 54 37 183 47 202 5 10 7 18 5 18 -3 0 10 44 30 98 19 53 36
102 38 107 15 47 108 239 118 243 5 2 8 10 8 18 0 8 5 20 10 27 6 7 36 53 67
102 31 50 62 97 70 105 7 8 30 37 51 65 56 75 88 110 193 215 92 91 167 160
175 160 4 0 38 27 62 50 8 8 23 19 32 25 25 15 132 85 160 104 14 10 63 37
110 60 47 24 92 46 100 51 69 38 345 132 425 146 11 1 39 8 63 13 23 6 59 14
80 17 20 3 48 7 61 9 29 5 125 15 191 21 59 4 272 5 330 0 288 -24 538 -92
790 -215 129 -62 323 -183 368 -228 7 -7 16 -13 20 -13 4 0 23 -14 42 -31 19
-17 57 -49 84 -72 113 -97 250 -241 333 -353 29 -38 56 -73 60 -79 5 -5 14
-22 22 -37 8 -16 18 -28 23 -28 4 0 8 -5 8 -11 0 -6 9 -23 20 -39 31 -43 142
-268 156 -315 4 -13 53 -146 61 -165 3 -8 6 -18 5 -22 -1 -4 3 -20 9 -35 23
-60 62 -256 75 -378 1 -16 3 -30 4 -30 7 0 13 -149 13 -327 1 -120 4 -218 7
-219 24 -5 1944 -3 1952 2 10 6 4 438 -7 569 -2 25 -6 81 -10 125 -4 44 -9 91
-12 105 -2 14 -6 43 -8 65 -6 58 -14 109 -31 205 -8 47 -17 94 -18 105 -2 11
-6 31 -10 45 -3 14 -8 36 -10 50 -3 14 -7 34 -10 45 -2 11 -9 43 -15 70 -12
51 -24 97 -61 220 -12 39 -23 77 -25 85 -5 21 -64 191 -75 215 -5 11 -18 43
-29 70 -40 105 -140 314 -212 445 -56 100 -188 309 -211 332 -10 10 -18 22
-18 27 0 5 -6 16 -12 23 -7 7 -26 31 -42 53 -17 22 -33 42 -36 45 -3 3 -19 23
-36 45 -16 22 -33 45 -39 51 -5 6 -35 40 -65 75 -68 80 -295 307 -375 376 -33
28 -71 61 -85 73 -50 43 -227 178 -310 236 -47 32 -86 62 -88 66 -2 5 -7 8
-12 8 -5 0 -35 17 -67 38 -32 21 -65 42 -73 45 -8 4 -27 15 -42 25 -125 81
-426 237 -603 312 -55 24 -114 49 -132 57 -89 38 -393 139 -475 158 -13 2 -50
12 -83 20 -33 9 -71 18 -85 21 -14 3 -33 7 -42 10 -10 3 -28 7 -40 9 -242 41
-287 48 -413 61 -59 5 -562 14 -567 9z"/>
<path d="M154 3259 c-2 -4 5 -42 17 -85 11 -44 22 -92 25 -108 20 -105 149
-450 244 -650 90 -193 309 -566 344 -588 6 -4 7 -8 1 -8 -5 0 -2 -5 8 -11 9
-5 17 -15 17 -20 0 -8 51 -80 70 -99 3 -3 25 -32 50 -65 24 -33 54 -71 66 -85
13 -14 32 -36 44 -50 147 -176 390 -413 569 -556 13 -11 28 -24 35 -29 57 -51
386 -279 456 -315 14 -7 27 -16 30 -19 11 -13 322 -172 420 -214 36 -16 81
-35 100 -44 19 -8 78 -30 130 -49 52 -19 102 -37 110 -41 8 -3 20 -7 25 -8 6
-2 57 -17 115 -34 160 -48 275 -78 375 -97 22 -4 46 -8 53 -10 8 -1 46 -8 85
-14 40 -6 83 -14 97 -16 14 -2 48 -7 75 -10 28 -3 66 -7 85 -10 106 -13 241
-18 465 -18 288 -1 463 11 640 40 37 6 79 13 125 20 30 4 122 23 195 40 11 2
31 6 45 9 68 14 321 87 400 116 30 12 62 22 70 24 76 17 472 202 639 300 56
33 122 71 145 84 22 13 43 27 46 30 3 4 29 22 58 40 30 19 59 39 65 45 7 6 32
24 57 41 25 16 52 36 61 45 9 8 26 22 39 30 12 8 28 20 34 25 6 6 52 44 101
85 204 169 459 430 595 609 14 18 30 38 35 44 6 7 32 41 58 77 27 36 54 72 60
80 26 32 146 220 199 310 71 120 173 321 217 425 19 44 38 84 43 90 4 5 8 15
8 23 0 7 9 32 19 55 11 23 21 51 23 62 1 11 5 22 8 25 12 11 106 323 115 380
2 14 9 40 14 59 6 19 8 37 5 40 -8 8 -8225 7 -8230 0z"/>
</g>
</svg>
