<svg width="15" height="17" viewBox="0 0 15 17" fill="none" xmlns="http://www.w3.org/2000/svg">
<path d="M12.3334 4.33333V14.3333H14.3334V4.33333H12.3334ZM11.6667 15H3.33335V17H11.6667V15ZM2.66669 14.3333V4.33333H0.666687V14.3333H2.66669ZM3.33335 3.66667H5.00002V1.66667H3.33335V3.66667ZM10 3.66667H11.6667V1.66667H10V3.66667ZM3.33335 15C2.96516 15 2.66669 14.7015 2.66669 14.3333H0.666687C0.666687 15.8061 1.86059 17 3.33335 17V15ZM12.3334 14.3333C12.3334 14.7015 12.0349 15 11.6667 15V17C13.1394 17 14.3334 15.8061 14.3334 14.3333H12.3334ZM14.3334 4.33333C14.3334 2.86057 13.1394 1.66667 11.6667 1.66667V3.66667C12.0349 3.66667 12.3334 3.96514 12.3334 4.33333H14.3334ZM2.66669 4.33333C2.66669 3.96514 2.96516 3.66667 3.33335 3.66667V1.66667C1.86059 1.66667 0.666687 2.86057 0.666687 4.33333H2.66669ZM6.66669 2H8.33335V0H6.66669V2ZM8.33335 3.33333H6.66669V5.33333H8.33335V3.33333ZM6.66669 3.33333C6.2985 3.33333 6.00002 3.03486 6.00002 2.66667H4.00002C4.00002 4.13943 5.19393 5.33333 6.66669 5.33333V3.33333ZM9.00002 2.66667C9.00002 3.03486 8.70154 3.33333 8.33335 3.33333V5.33333C9.80611 5.33333 11 4.13943 11 2.66667H9.00002ZM8.33335 2C8.70154 2 9.00002 2.29848 9.00002 2.66667H11C11 1.19391 9.80611 0 8.33335 0V2ZM6.66669 0C5.19393 0 4.00002 1.19391 4.00002 2.66667H6.00002C6.00002 2.29848 6.2985 2 6.66669 2V0Z" fill="#576788"/>
</svg>
