<svg width="40" height="40" viewBox="0 0 40 40" fill="none" xmlns="http://www.w3.org/2000/svg">
<circle cx="20" cy="20" r="20" fill="#F8F9FC"/>
<path fill-rule="evenodd" clip-rule="evenodd" d="M13.1515 13.1515C13.6201 12.6828 14.3799 12.6828 14.8485 13.1515L20 18.3029L25.1515 13.1515C25.6201 12.6828 26.3799 12.6828 26.8485 13.1515C27.3171 13.6201 27.3171 14.3799 26.8485 14.8485L21.697 20L26.8485 25.1515C27.3171 25.6201 27.3171 26.3799 26.8485 26.8485C26.3799 27.3171 25.6201 27.3171 25.1515 26.8485L20 21.697L14.8485 26.8485C14.3799 27.3171 13.6201 27.3171 13.1515 26.8485C12.6828 26.3799 12.6828 25.6201 13.1515 25.1515L18.3029 20L13.1515 14.8485C12.6828 14.3799 12.6828 13.6201 13.1515 13.1515Z" fill="#576788"/>
</svg>
