<svg width="18" height="18" viewBox="0 0 18 18" fill="none" xmlns="http://www.w3.org/2000/svg">
<path d="M15 9L17 9M15 9C15 7.89543 14.1046 7 13 7C11.8954 7 11 7.89543 11 9M15 9C15 10.1046 14.1046 11 13 11C11.8954 11 11 10.1046 11 9M3 3C3 4.10457 3.89543 5 5 5C6.10457 5 7 4.10457 7 3M3 3C3 1.89543 3.89543 0.999999 5 0.999999C6.10457 1 7 1.89543 7 3M3 3L1 3M7 3L17 3M11 9L1 9M3 15C3 16.1046 3.89543 17 5 17C6.10457 17 7 16.1046 7 15M3 15C3 13.8954 3.89543 13 5 13C6.10457 13 7 13.8954 7 15M3 15L0.999999 15M7 15L17 15" stroke="#576788" stroke-width="1.5" stroke-linecap="round" stroke-linejoin="round"/>
</svg>
