<svg width="20" height="20" viewBox="0 0 20 20" fill="none" xmlns="http://www.w3.org/2000/svg">
<path d="M18.2677 1.73079L18.9741 1.02299V1.02299L18.2677 1.73079ZM4.5 19V20C4.76488 20 5.01893 19.8949 5.20641 19.7078L4.5 19ZM1 19H0C0 19.5523 0.447715 20 1 20L1 19ZM1 15.436L0.29359 14.7282C0.105627 14.9157 0 15.1704 0 15.436H1ZM15.4386 2.4386C16.0245 1.8538 16.9754 1.8538 17.5613 2.4386L18.9741 1.02299C17.6074 -0.340997 15.3924 -0.340997 14.0258 1.02299L15.4386 2.4386ZM17.5613 2.4386C18.1462 3.0223 18.1462 3.96786 17.5613 4.55157L18.9741 5.96717C20.3419 4.6021 20.3419 2.38806 18.9741 1.02299L17.5613 2.4386ZM17.5613 4.55157L3.79359 18.2922L5.20641 19.7078L18.9741 5.96717L17.5613 4.55157ZM4.5 18H1V20H4.5V18ZM14.0258 1.02299L0.29359 14.7282L1.70641 16.1438L15.4386 2.4386L14.0258 1.02299ZM0 15.436V19H2V15.436H0ZM12.5258 3.93564L16.0613 7.46422L17.4741 6.04862L13.9386 2.52004L12.5258 3.93564Z" fill="#576788"/>
</svg>
