<svg width="20" height="21" viewBox="0 0 20 21" fill="none" xmlns="http://www.w3.org/2000/svg">
<path fill-rule="evenodd" clip-rule="evenodd" d="M2 0.354492H18C19.1046 0.354492 20 1.24992 20 2.35449V18.3545C20 19.4591 19.1046 20.3545 18 20.3545H2C0.895431 20.3545 0 19.4591 0 18.3545V2.35449C0 1.24992 0.895431 0.354492 2 0.354492ZM2.84448 3.13672C6.68254 3.13672 10.289 4.62949 12.9995 7.33999C15.71 10.0505 17.2028 13.657 17.2028 17.4951H14.3789C14.3789 14.4113 13.1798 11.514 11.0027 9.33682C8.82555 7.15966 5.92823 5.96067 2.84448 5.96067V3.13672ZM2.81519 10.7395V7.91553C8.09742 7.91553 12.3948 12.2129 12.3948 17.4952H9.57084C9.57084 13.77 6.54023 10.7395 2.81519 10.7395ZM4.8202 17.5735C5.93725 17.5735 6.8428 16.668 6.8428 15.5509C6.8428 14.4339 5.93725 13.5283 4.8202 13.5283C3.70315 13.5283 2.79761 14.4339 2.79761 15.5509C2.79761 16.668 3.70315 17.5735 4.8202 17.5735Z" fill="#576788"/>
</svg>
