<svg width="20" height="20" viewBox="0 0 20 20" fill="none" xmlns="http://www.w3.org/2000/svg">
<path d="M17.5 5C17.5 6.38071 16.3807 7.5 15 7.5C14.0213 7.5 13.1739 6.93757 12.7634 6.11828C12.5949 5.78179 12.5 5.40197 12.5 5C12.5 3.61929 13.6193 2.5 15 2.5C16.3807 2.5 17.5 3.61929 17.5 5Z" fill="#576788"/>
<path d="M17.5 15C17.5 16.3807 16.3807 17.5 15 17.5C13.6193 17.5 12.5 16.3807 12.5 15C12.5 14.598 12.5949 14.2182 12.7634 13.8817C13.1739 13.0624 14.0213 12.5 15 12.5C16.3807 12.5 17.5 13.6193 17.5 15Z" fill="#576788"/>
<path d="M7.5 10C7.5 10.402 7.40513 10.7818 7.23656 11.1183C6.82611 11.9376 5.97874 12.5 5 12.5C3.61929 12.5 2.5 11.3807 2.5 10C2.5 8.61929 3.61929 7.5 5 7.5C5.97874 7.5 6.82611 8.06243 7.23656 8.88172C7.40513 9.21821 7.5 9.59803 7.5 10Z" fill="#576788"/>
</svg>
