<svg width="4" height="19" viewBox="0 0 4 19" fill="none" xmlns="http://www.w3.org/2000/svg">
<path d="M2 3.5C1.44772 3.5 1 3.05228 1 2.5C1 1.94772 1.44772 1.5 2 1.5C2.55229 1.5 3 1.94772 3 2.5C3 3.05228 2.55229 3.5 2 3.5Z" fill="#A0ABC0"/>
<path d="M2 10.5C1.44772 10.5 1 10.0523 1 9.5C1 8.94772 1.44772 8.5 2 8.5C2.55229 8.5 3 8.94772 3 9.5C3 10.0523 2.55228 10.5 2 10.5Z" fill="#A0ABC0"/>
<path d="M2 17.5C1.44772 17.5 1 17.0523 1 16.5C1 15.9477 1.44772 15.5 2 15.5C2.55228 15.5 3 15.9477 3 16.5C3 17.0523 2.55228 17.5 2 17.5Z" fill="#A0ABC0"/>
<path d="M2 2.5V2.51M2 9.5V9.51M2 16.5V16.51M2 3.5C1.44772 3.5 1 3.05228 1 2.5C1 1.94772 1.44772 1.5 2 1.5C2.55229 1.5 3 1.94772 3 2.5C3 3.05228 2.55229 3.5 2 3.5ZM2 10.5C1.44772 10.5 1 10.0523 1 9.5C1 8.94772 1.44772 8.5 2 8.5C2.55229 8.5 3 8.94772 3 9.5C3 10.0523 2.55229 10.5 2 10.5ZM2 17.5C1.44772 17.5 1 17.0523 1 16.5C1 15.9477 1.44772 15.5 2 15.5C2.55228 15.5 3 15.9477 3 16.5C3 17.0523 2.55228 17.5 2 17.5Z" stroke="#A0ABC0" stroke-width="2" stroke-linecap="round" stroke-linejoin="round"/>
</svg>
