<svg width="28" height="28" viewBox="0 0 28 28" fill="none" xmlns="http://www.w3.org/2000/svg">
<path fill-rule="evenodd" clip-rule="evenodd" d="M14 2C16.7614 2 19 4.23858 19 7L9 7C9 4.23858 11.2386 2 14 2ZM8 14C8 10.6863 10.6863 8 14 8C17.3137 8 20 10.6863 20 14C20 17.3137 17.3137 20 14 20C10.6863 20 8 17.3137 8 14ZM7 9C4.23858 9 2 11.2386 2 14C2 16.7614 4.23858 19 7 19V9ZM26 14C26 16.7614 23.7614 19 21 19V9C23.7614 9 26 11.2386 26 14ZM9 21C9 23.7614 11.2386 26 14 26C16.7614 26 19 23.7614 19 21H9ZM21 4C22.6569 4 24 5.34315 24 7H21V4ZM21 24C22.6569 24 24 22.6569 24 21H21V24ZM4 7C4 5.34315 5.34315 4 7 4V7H4ZM4 21C4 22.6569 5.34315 24 7 24V21H4Z" fill="#576788"/>
</svg>
