<svg width="20" height="21" viewBox="0 0 20 21" fill="none" xmlns="http://www.w3.org/2000/svg">
<path d="M1.05493 9.35449H3C4.10457 9.35449 5 10.2499 5 11.3545V12.3545C5 13.4591 5.89543 14.3545 7 14.3545C8.10457 14.3545 9 15.2499 9 16.3545V19.2996M6 2.29001V3.85449C6 5.2352 7.11929 6.35449 8.5 6.35449H9C10.1046 6.35449 11 7.24992 11 8.35449C11 9.45906 11.8954 10.3545 13 10.3545C14.1046 10.3545 15 9.45906 15 8.35449C15 7.24992 15.8954 6.35449 17 6.35449L18.0645 6.35449M13 18.8424V16.3545C13 15.2499 13.8954 14.3545 15 14.3545H18.0645M19 10.3545C19 15.3251 14.9706 19.3545 10 19.3545C5.02944 19.3545 1 15.3251 1 10.3545C1 5.38393 5.02944 1.35449 10 1.35449C14.9706 1.35449 19 5.38393 19 10.3545Z" stroke="#576788" stroke-width="2" stroke-linecap="round" stroke-linejoin="round"/>
<path d="M15 6.85449L17.5 5.85449V4.85449L14 2.35449L12.5 1.85449L8.5 1.35449L6 2.35449L6.5 5.85449L8.5 6.35449L10.5 7.35449L11 9.35449L12.5 10.3545L14.5 9.35449L15 6.85449Z" fill="#576788"/>
<path d="M14 14.8545H17V16.3545L14.5 17.8545H13L14 14.8545Z" fill="#576788"/>
<path d="M8.5 14.8545V19.3545L6 18.3545L4 17.8545L2 14.8545L1 9.35449L4.5 9.85449L6 14.3545L8.5 14.8545Z" fill="#576788"/>
</svg>
